<svg xmlns="http://www.w3.org/2000/svg" width="1200" height="600"><rect width="1200" height="600" x="0" y="0" fill="#FFFFFF" id="backgorund"/><g transform="translate(10,10)" id="visualization"><g><rect x="1172" y="-5.684341886080802e-14" height="47.5826086956522" width="8" fill="black"><title>Africa: 19</title></rect><rect x="1172" y="48.58260869565214" height="37.56521739130437" width="8" fill="black"><title>América do Norte: 15</title></rect><rect x="1172" y="87.14782608695651" height="30.05217391304342" width="8" fill="black"><title>América do Sul: 12</title></rect><rect x="1172" y="118.19999999999993" height="112.69565217391306" width="8" fill="black"><title>Asia: 45</title></rect><rect x="0" y="0.49999999999994316" height="142.7478260869566" width="8" fill="black"><title>Costa: 57</title></rect><rect x="1172" y="231.895652173913" height="348.104347826087" width="8" fill="black"><title>Europa: 139</title></rect><rect x="0" y="144.24782608695654" height="277.9826086956522" width="8" fill="black"><title>Rio: 111</title></rect><rect x="0" y="423.2304347826087" height="10.017391304347825" width="8" fill="black"><title>RuLago: 4</title></rect><rect x="0" y="434.24782608695654" height="145.25217391304346" width="8" fill="black"><title>Sem: 58</title></rect></g><g fill="none" stroke-opacity="0.9"><g style="mix-blend-mode: multiply;"><path d="M8,220.63043478260872C590,220.63043478260872,590,177.05217391304342,1172,177.05217391304342" stroke="#859bd5" stroke-width="77.63478260869566"/><title>Rio → Asia: 31</title></g><g style="mix-blend-mode: multiply;"><path d="M8,474.3173913043479C590,474.3173913043479,590,223.38260869565212,1172,223.38260869565212" stroke="#cbe45d" stroke-width="15.026086956521741"/><title>Sem → Asia: 6</title></g><g style="mix-blend-mode: multiply;"><path d="M8,151.7608695652174C590,151.7608695652174,590,30.052173913043426,1172,30.052173913043426" stroke="#859bd5" stroke-width="15.026086956521741"/><title>Rio → Africa: 6</title></g><g style="mix-blend-mode: multiply;"><path d="M8,50.586956521739076C590,50.586956521739076,590,128.21739130434776,1172,128.21739130434776" stroke="#3b63a8" stroke-width="20.034782608695654"/><title>Costa → Asia: 8</title></g><g style="mix-blend-mode: multiply;"><path d="M8,530.6652173913044C590,530.6652173913044,590,531.1652173913043,1172,531.1652173913043" stroke="#cbe45d" stroke-width="97.66956521739131"/><title>Sem → Europa: 39</title></g><g style="mix-blend-mode: multiply;"><path d="M8,101.92608695652169C590,101.92608695652169,590,273.21739130434776,1172,273.21739130434776" stroke="#3b63a8" stroke-width="82.64347826086957"/><title>Costa → Europa: 33</title></g><g style="mix-blend-mode: multiply;"><path d="M8,11.769565217391248C590,11.769565217391248,590,11.269565217391248,1172,11.269565217391248" stroke="#3b63a8" stroke-width="22.53913043478261"/><title>Costa → Africa: 9</title></g><g style="mix-blend-mode: multiply;"><path d="M8,340.83913043478265C590,340.83913043478265,590,395.9304347826087,1172,395.9304347826087" stroke="#859bd5" stroke-width="162.7826086956522"/><title>Rio → Europa: 65</title></g><g style="mix-blend-mode: multiply;"><path d="M8,439.25652173913045C590,439.25652173913045,590,42.57391304347821,1172,42.57391304347821" stroke="#cbe45d" stroke-width="10.017391304347827"/><title>Sem → Africa: 4</title></g><g style="mix-blend-mode: multiply;"><path d="M8,430.7434782608696C590,430.7434782608696,590,479.82608695652175,1172,479.82608695652175" stroke="#98619b" stroke-width="5.008695652173913"/><title>RuLago → Europa: 2</title></g><g style="mix-blend-mode: multiply;"><path d="M8,36.813043478260816C590,36.813043478260816,590,90.90434782608695,1172,90.90434782608695" stroke="#3b63a8" stroke-width="7.513043478260871"/><title>Costa → América do Sul: 3</title></g><g style="mix-blend-mode: multiply;"><path d="M8,425.7347826086957C590,425.7347826086957,590,73.6260869565217,1172,73.6260869565217" stroke="#98619b" stroke-width="5.008695652173913"/><title>RuLago → América do Norte: 2</title></g><g style="mix-blend-mode: multiply;"><path d="M8,449.2739130434783C590,449.2739130434783,590,81.13913043478257,1172,81.13913043478257" stroke="#cbe45d" stroke-width="10.017391304347827"/><title>Sem → América do Norte: 4</title></g><g style="mix-blend-mode: multiply;"><path d="M8,460.54347826086956C590,460.54347826086956,590,110.9391304347826,1172,110.9391304347826" stroke="#cbe45d" stroke-width="12.521739130434783"/><title>Sem → América do Sul: 5</title></g><g style="mix-blend-mode: multiply;"><path d="M8,176.80434782608697C590,176.80434782608697,590,99.6695652173913,1172,99.6695652173913" stroke="#859bd5" stroke-width="10.017391304347827"/><title>Rio → América do Sul: 4</title></g><g style="mix-blend-mode: multiply;"><path d="M8,165.53478260869568C590,165.53478260869568,590,64.86086956521736,1172,64.86086956521736" stroke="#859bd5" stroke-width="12.521739130434783"/><title>Rio → América do Norte: 5</title></g><g style="mix-blend-mode: multiply;"><path d="M8,28.047826086956466C590,28.047826086956466,590,53.59130434782605,1172,53.59130434782605" stroke="#3b63a8" stroke-width="10.017391304347827"/><title>Costa → América do Norte: 4</title></g></g><g><text x="1168" y="23.791304347826042" text-anchor="end"><tspan alignment-baseline="middle" x="1168" style="font-family: Arial, sans-serif; font-size: 10px; fill: black; font-weight: bold;">Africa</tspan></text><text x="1168" y="67.36521739130433" text-anchor="end"><tspan alignment-baseline="middle" x="1168" style="font-family: Arial, sans-serif; font-size: 10px; fill: black; font-weight: bold;">América do Norte</tspan></text><text x="1168" y="102.17391304347822" text-anchor="end"><tspan alignment-baseline="middle" x="1168" style="font-family: Arial, sans-serif; font-size: 10px; fill: black; font-weight: bold;">América do Sul</tspan></text><text x="1168" y="174.54782608695646" text-anchor="end"><tspan alignment-baseline="middle" x="1168" style="font-family: Arial, sans-serif; font-size: 10px; fill: black; font-weight: bold;">Asia</tspan></text><text x="12" y="71.87391304347824" text-anchor="start"><tspan alignment-baseline="middle" x="12" style="font-family: Arial, sans-serif; font-size: 10px; fill: black; font-weight: bold;">Costa</tspan></text><text x="1168" y="405.9478260869565" text-anchor="end"><tspan alignment-baseline="middle" x="1168" style="font-family: Arial, sans-serif; font-size: 10px; fill: black; font-weight: bold;">Europa</tspan></text><text x="12" y="283.2391304347826" text-anchor="start"><tspan alignment-baseline="middle" x="12" style="font-family: Arial, sans-serif; font-size: 10px; fill: black; font-weight: bold;">Rio</tspan></text><text x="12" y="428.2391304347826" text-anchor="start"><tspan alignment-baseline="middle" x="12" style="font-family: Arial, sans-serif; font-size: 10px; fill: black; font-weight: bold;">RuLago</tspan></text><text x="12" y="506.8739130434783" text-anchor="start"><tspan alignment-baseline="middle" x="12" style="font-family: Arial, sans-serif; font-size: 10px; fill: black; font-weight: bold;">Sem</tspan></text></g><g><text x="1176" y="-4.000000000000057" text-anchor="middle" style="font-family: Arial, sans-serif; font-size: 12px; fill: rgb(123, 123, 123); font-weight: bold;">Continente</text><text x="4" y="-3.500000000000057" text-anchor="middle" style="font-family: Arial, sans-serif; font-size: 12px; fill: rgb(123, 123, 123); font-weight: bold;">Agua</text></g></g></svg>